<?xml version="1.0" encoding="UTF-8" standalone="no"?>
<svg id="svg2" xmlns:rdf="http://www.w3.org/1999/02/22-rdf-syntax-ns#" xmlns="http://www.w3.org/2000/svg" height="200" viewBox="0 0 600.00001 200" width="600" version="1.1" xmlns:cc="http://creativecommons.org/ns#" xmlns:dc="http://purl.org/dc/elements/1.1/">
 <g id="g4179" transform="matrix(1.0283 0 0 1.0538 -2.6225 -867.77)">
  <path id="path4886" fill="#800000" d="m107.01 942.46h31.43v-10.08h-19.39v-35.42h-12.04v45.5z"/>
  <path id="path4888" fill="#008080" d="m145.5 924.96c0 11.62 8.82 18.34 18.06 18.34s18.06-6.72 18.06-18.34-8.82-18.34-18.06-18.34-18.06 6.72-18.06 18.34zm12.32 0c0-5.32 1.68-8.68 5.74-8.68s5.74 3.36 5.74 8.68-1.68 8.68-5.74 8.68-5.74-3.36-5.74-8.68z"/>
  <path id="path4890" fill="#a40" d="m197.64 946.24c0-0.98 0.56-1.68 1.75-2.52 1.19 0.28 2.59 0.42 5.32 0.42h3.5c3.5 0 5.46 0.28 5.46 2.1 0 1.96-3.43 3.22-8.12 3.22s-7.91-0.98-7.91-3.22zm-9.73 1.96c0 6.3 7.07 8.68 15.75 8.68 13.09 0 21.42-5.18 21.42-12.74 0-6.44-5.32-9.1-14.56-9.1h-5.95c-3.92 0-5.46-0.56-5.46-2.1 0-0.98 0.28-1.4 1.12-2.03 1.68 0.35 3.15 0.49 4.41 0.49 8.33 0 14.77-3.36 14.77-11.62 0-1.4-0.49-2.8-0.98-3.64h6.3v-8.68h-14.14c-1.75-0.56-3.85-0.84-5.95-0.84-8.12 0-15.47 4.06-15.47 12.74 0 4.06 2.1 7.28 4.76 8.96v0.28c-2.45 1.68-4.2 4.2-4.2 6.58 0 2.94 1.54 4.76 3.5 6.02v0.28c-3.5 1.68-5.32 3.85-5.32 6.72zm16.73-23.94c-2.31 0-4.2-1.54-4.2-4.9 0-3.22 1.89-4.76 4.2-4.76s4.27 1.54 4.27 4.76c0 3.36-1.96 4.9-4.27 4.9z"/>
  <path id="path4892" fill="#668000" d="m232.28 916.84h13.3v25.62h12.04v-35h-25.34v9.38zm18.9-13.72c4.48 0 7.7-2.8 7.7-7s-3.22-7.14-7.7-7.14-7.7 2.94-7.7 7.14 3.22 7 7.7 7z"/>
  <path id="path4894" fill="#6f0080" d="m272.95 920.06c0 15.54 10.22 23.24 22.12 23.24 5.6 0 10.71-2.24 14.56-6.72l-6.58-7.28c-1.96 2.1-4.34 3.64-7.28 3.64-6.16 0-10.5-4.76-10.5-13.3 0-8.26 4.34-13.16 9.94-13.16 3.08 0 5.18 1.12 7.28 2.94l6.58-7.42c-3.22-3.08-7.98-5.88-13.86-5.88-12.32 0-22.26 8.68-22.26 23.94z"/>
  <path id="path4896" fill="#d4aa00" d="m314.59 924.96c0 11.62 8.82 18.34 18.06 18.34s18.06-6.72 18.06-18.34-8.82-18.34-18.06-18.34-18.06 6.72-18.06 18.34zm12.32 0c0-5.32 1.68-8.68 5.74-8.68s5.74 3.36 5.74 8.68-1.68 8.68-5.74 8.68-5.74-3.36-5.74-8.68z"/>
  <path id="path4898" fill="#0047d2" d="m357.7 903.12h9.52v24.92c0 9.1 4.76 15.26 14.07 15.26 4.55 0 7.07-0.7 10.85-1.82l-2.59-8.82c-2.03 0.7-3.57 0.98-5.04 0.98-2.45 0-5.25-1.12-5.25-5.18v-34.72h-21.56v9.38z"/>
  <path id="path4900" fill="#d40000" d="m399.13 924.96c0 11.62 8.82 18.34 18.06 18.34s18.06-6.72 18.06-18.34-8.82-18.34-18.06-18.34-18.06 6.72-18.06 18.34zm12.32 0c0-5.32 1.68-8.68 5.74-8.68s5.74 3.36 5.74 8.68-1.68 8.68-5.74 8.68-5.74-3.36-5.74-8.68z"/>
  <path id="path4902" fill="#008000" d="m475.71 907.46h-12.04v22.54c-1.82 2.52-3.22 3.08-5.25 3.08-3.15 0-3.99-1.68-3.99-5.6v-20.02h-12.04v21.56c0 8.68 3.22 14.28 11.06 14.28 4.9 0 8.4-2.1 11.34-5.46h0.28l0.84 4.62h9.8v-35z"/>
  <path id="path4904" fill="#a04" d="m488.02 942.46h12.04v-17.36c2.59-5.88 6.86-7.98 10.85-7.98 2.52 0 3.99 0.35 6.09 0.98l2.38-10.08c-1.96-0.84-3.43-1.4-6.65-1.4-5.25 0-10.29 2.52-13.65 8.26h-0.28l-0.91-7.42h-9.87v35z"/>
  <g stroke="#007397" stroke-width="2" fill="#536c67">
   <path id="rect4750" d="m143.72 968.7h38.386v38.386h-38.386z"/>
   <path id="rect4750-3" d="m187.16 838.39h38.386v38.386h-38.386z"/>
   <path id="rect4750-6" d="m360.9 966.7h38.386v38.386h-38.386z"/>
   <path id="rect4750-6-1" d="m398.28 838.39h38.386v38.386h-38.386z"/>
  </g>
  <g stroke="#000" fill="none">
   <g stroke-width="1px">
    <path id="path4797" d="m42.706 919.22h63.64"/>
    <path id="path4799" d="m163.92 905.08v-51.518h21.213"/>
    <path id="path4801" d="m206.35 906.09v-29.294"/>
    <path id="path4803" d="m226.55 852.55h105.06v54.548"/>
    <path id="path4805" d="m183.12 978.82h67.68v-34.345"/>
    <path id="path4807" d="m183.12 993.97h110.11v-48.487"/>
   </g>
   <path id="path4809" d="m293.22 993.97h66.67" stroke-width="1.0402px"/>
   <g stroke-width="1px">
    <path id="path4811" d="m380.1 964.68v-20.203"/>
    <path id="path4813" d="m371.01 892.96v-42.426h26.264"/>
    <path id="path4815" d="m419.49 878.82v27.274"/>
    <path id="path4817" d="m401.31 992.96h94.954v-51.518"/>
    <path id="path4819" d="m468.99 906.09v-57.579h-31.315"/>
    <path id="path4821" d="m118.47 942.46v43.437h23.234"/>
   </g>
   <path id="path4823" d="m517.48 911.14h32.241" stroke-width=".74829px"/>
   <path id="path4825" d="m164.92 853.55h-89.91v38.392" stroke-width=".98721px"/>
  </g>
  <g stroke="#007397" stroke-width="2">
   <path id="rect4750-6-8" d="m54.826 888.92h38.386v38.386h-38.386z" fill="#536c67"/>
   <path id="path4842" d="m42.196 919.73a6.566 6.566 0 0 1 -6.566 6.566 6.566 6.566 0 0 1 -6.566 -6.566 6.566 6.566 0 0 1 6.566 -6.566 6.566 6.566 0 0 1 6.566 6.566z" fill="#052"/>
   <path id="path4842-2" d="m561.92 911.55a6.566 6.566 0 0 1 -6.566 6.566 6.566 6.566 0 0 1 -6.566 -6.566 6.566 6.566 0 0 1 6.566 -6.566 6.566 6.566 0 0 1 6.566 6.566z" fill="#a04"/>
  </g>
 </g>
</svg>
